Coordinates
version=1
nRows=16
nColumns=40
inDegrees=yes

Units are S.I. units (second, meters, Newtons, ...)
Angles are in degrees.

endheader
time	pelvis_tilt	pelvis_list	pelvis_rotation	pelvis_tx	pelvis_ty	pelvis_tz	hip_flexion_r	hip_adduction_r	hip_rotation_r	knee_angle_r	knee_angle_r_beta	ankle_angle_r	subtalar_angle_r	mtp_angle_r	hip_flexion_l	hip_adduction_l	hip_rotation_l	knee_angle_l	knee_angle_l_beta	ankle_angle_l	subtalar_angle_l	mtp_angle_l	lumbar_extension	lumbar_bending	lumbar_rotation	arm_flex_r	arm_add_r	arm_rot_r	elbow_flex_r	pro_sup_r	wrist_flex_r	wrist_dev_r	arm_flex_l	arm_add_l	arm_rot_l	elbow_flex_l	pro_sup_l	wrist_flex_l	wrist_dev_l
     46.15014286	     -4.75382048	     -4.60091839	      7.20940734	      0.86727892	      0.91056107	      0.58347071	     15.96369687	      6.53747086	     -7.04694230	     29.46987899	     29.46987899	     18.66163857	    -13.76012139	      0.66977849	     34.07995115	    -11.07066052	     10.23585698	     65.40618055	     65.40618055	      5.64219861	    -19.12390340	     12.82921852	    -12.04797415	      3.64214280	      1.29217037	     19.14939318	    -24.25647561	    -19.76814767	     68.12304747	     45.59740582	      0.00000000	      0.00000000	     -9.51814213	    -10.99425521	      6.57364747	     26.40056001	     45.45981574	      0.00000000	      0.00000000
     46.17278571	     -4.39107587	     -4.62668459	      8.08093081	      0.86611080	      0.90833192	      0.58312385	     15.97261968	      6.59428464	     -7.30860699	     30.61415231	     30.61415231	     19.27668724	    -14.81690400	      0.65911702	     34.94258243	    -10.97056719	     10.06836317	     64.40485007	     64.40485007	      6.82461490	    -19.25904847	     13.48601190	    -12.34876863	      3.73485031	      1.96517357	     21.43261656	    -24.23933810	    -19.46790383	     69.10120574	     45.56352785	      0.00000000	      0.00000000	     -9.63562221	    -10.72122187	      6.85391697	     26.33504643	     45.41262528	      0.00000000	      0.00000000
     46.19542857	     -4.25138494	     -4.43474451	      8.95992283	      0.86474401	      0.90624257	      0.58234756	     16.18070043	      6.41201060	     -7.37195417	     31.75680941	     31.75680941	     19.92868164	    -16.10280264	      1.10658585	     35.74478224	    -10.52861298	      9.77805807	     62.61662107	     62.61662107	      8.28551051	    -19.29412473	     14.91118314	    -12.45057833	      3.62582175	      1.81766002	     24.23169673	    -23.35672818	    -18.46284965	     70.42592298	     45.49418685	      0.00000000	      0.00000000	    -10.03559580	    -10.43022688	      7.46364670	     26.01250194	     45.30728985	      0.00000000	      0.00000000
     46.21807143	     -4.23048724	     -4.49194059	      9.86587700	      0.86340790	      0.90467264	      0.58129018	     16.15977427	      6.37651931	     -7.89507844	     32.14334553	     32.14334553	     20.32263896	    -16.62199381	      1.11657187	     36.40277851	    -10.19473509	      9.76139165	     59.98110225	     59.98110225	      9.31344056	    -19.26398814	     15.06035802	    -12.35851935	      3.75000575	      2.77963167	     26.11715857	    -23.37819419	    -18.19279108	     71.03599456	     45.47261402	      0.00000000	      0.00000000	     -9.75804040	    -10.07435614	      7.60341404	     26.14632127	     45.28966296	      0.00000000	      0.00000000
     46.24071429	     -4.19308184	     -4.13577676	     10.65928333	      0.86188407	      0.90367934	      0.57972031	     16.18641401	      5.92963696	     -8.02404714	     32.89759715	     32.89759715	     21.55292883	    -16.98249128	      3.36239151	     36.62125047	     -9.34532444	      9.61392483	     56.75877548	     56.75877548	     10.42427802	    -19.19096229	     16.21384241	    -12.44717133	      3.53309548	      1.58567826	     30.79739521	    -22.34734831	    -13.79582732	     70.41180220	     45.36446728	      0.00000000	      0.00000000	    -10.46150436	     -9.73271323	      9.60889131	     26.06001423	     44.95125101	      0.00000000	      0.00000000
     46.26335714	     -4.23368546	     -3.78145137	     11.37147161	      0.86065976	      0.90348948	      0.57801627	     15.96193722	      5.41761332	     -8.37293800	     33.04255132	     33.04255132	     21.90628067	    -17.20800298	      3.51587478	     36.47343272	     -8.52216583	      9.46388897	     52.78246340	     52.78246340	     10.84504998	    -19.01943986	     16.00968458	    -12.47700080	      3.23653650	      2.18773071	     33.25596372	    -21.81788041	    -13.19091996	     71.31467686	     45.32478400	      0.00000000	      0.00000000	    -10.21559187	     -9.35621035	      9.98275530	     26.25620742	     44.89878128	      0.00000000	      0.00000000
     46.28600000	     -4.41359220	     -3.57654089	     12.08368906	      0.85953393	      0.90367256	      0.57612044	     15.71551949	      5.02763694	     -8.81281533	     32.83895560	     32.83895560	     22.25871364	    -17.21675837	      4.11765202	     36.17996593	     -7.81749781	      9.47512369	     48.24968302	     48.24968302	      9.99667493	    -18.72138888	     12.98542960	    -12.28167196	      3.10912479	      1.81239716	     36.63110218	    -20.90719307	    -10.10315237	     71.43180161	     45.23661855	      0.00000000	      0.00000000	    -10.51666220	     -8.97419008	     11.40841371	     26.52114535	     44.68110870	      0.00000000	      0.00000000
     46.30864286	     -4.60984937	     -3.31841035	     12.65655746	      0.85874487	      0.90458392	      0.57406064	     15.26453661	      4.60143182	     -9.16282903	     32.28435691	     32.28435691	     22.29819961	    -17.14472602	      4.17846285	     35.57855276	     -7.07436900	      9.56905048	     43.45529422	     43.45529422	      9.12095984	    -18.10455293	     10.53260666	    -12.11460581	      2.87213330	      2.01722959	     39.47651329	    -20.21709690	     -7.90643576	     71.84253051	     45.17111446	      0.00000000	      0.00000000	    -10.63156192	     -8.67502071	     12.60197045	     27.02867399	     44.51810893	      0.00000000	      0.00000000
     46.33128571	     -4.82442945	     -3.06648529	     13.13799714	      0.85826360	      0.90598681	      0.57190469	     14.68536901	      4.19888473	     -9.47631232	     31.49820112	     31.49820112	     22.21058204	    -17.05367481	      4.28752274	     34.91516195	     -6.37879706	      9.69882072	     38.88130691	     38.88130691	      9.13259563	    -16.63395603	     10.54264968	    -11.90855237	      2.53984301	      2.77723322	     41.74617471	    -19.65628310	     -7.18570359	     72.74531486	     45.12853577	      0.00000000	      0.00000000	    -10.36249871	     -8.25238392	     12.91203255	     27.23382287	     44.48233771	      0.00000000	      0.00000000
     46.35392857	     -5.02282636	     -2.91213984	     13.58024804	      0.85814193	      0.90760089	      0.56953114	     13.91134015	      3.89339372	     -9.87590938	     30.35497908	     30.35497908	     21.71005355	    -16.80566592	      3.30452214	     34.05297642	     -5.91792392	      9.69216238	     34.20306213	     34.20306213	      7.80922663	    -14.87507625	      6.96750495	    -11.71218035	      2.40680502	      2.74190285	     44.62712705	    -18.94940001	     -3.87891238	     73.17938921	     45.07916814	      0.00000000	      0.00000000	    -10.89681756	     -8.32002423	     15.86283375	     28.31098000	     44.19377383	      0.00000000	      0.00000000
     46.37657143	     -5.24376110	     -2.73536163	     13.93723972	      0.85836908	      0.90944018	      0.56701237	     13.10846005	      3.58099900	    -10.21014829	     29.20341155	     29.20341155	     21.53922442	    -16.39417379	      3.42114525	     33.31213681	     -5.44860528	      9.63040455	     30.23907367	     30.23907367	      8.03633308	    -12.22350101	      7.32341165	    -11.49421006	      2.13988580	      3.24820011	     46.71670193	    -18.08595596	     -2.94410749	     74.41655056	     45.01864405	      0.00000000	      0.00000000	    -10.88784605	     -7.93118145	     16.12650123	     28.32570541	     44.16884571	      0.00000000	      0.00000000
     46.39921429	     -5.42977352	     -2.71056788	     14.25310494	      0.85891722	      0.91114131	      0.56436627	     12.22268502	      3.43277221	    -10.60907161	     27.92725092	     27.92725092	     21.27779096	    -15.80280717	      3.27687120	     32.71561644	     -5.21552359	      9.36977124	     26.94299252	     26.94299252	      8.31886658	     -9.11797654	      7.50369702	    -11.30454501	      2.03675686	      3.43015064	     48.92795608	    -17.21704910	     -1.14268045	     75.88061392	     44.92504929	      0.00000000	      0.00000000	    -11.12191961	     -7.56409304	     16.53862156	     28.35907132	     44.12250351	      0.00000000	      0.00000000
     46.42185714	     -5.67364285	     -2.72396249	     14.48788950	      0.85974677	      0.91243799	      0.56154847	     11.42215655	      3.30351144	    -11.00299460	     26.69811151	     26.69811151	     20.76862813	    -15.33403400	      2.31405833	     32.31221567	     -5.03522415	      8.92569208	     24.32558603	     24.32558603	      8.58876747	     -6.09878051	      7.65301478	    -10.98769073	      1.91816274	      3.55285634	     51.05509137	    -16.93835814	      2.10347930	     77.16332116	     44.80951973	      0.00000000	      0.00000000	    -11.64108567	     -7.44333593	     17.44378026	     28.88299597	     44.03391317	      0.00000000	      0.00000000
     46.44450000	     -5.86038138	     -2.73604908	     14.71271963	      0.86092704	      0.91359557	      0.55842671	     10.55996269	      3.18294288	    -11.37832139	     25.54606958	     25.54606958	     20.60380260	    -14.67694701	      2.16556721	     31.87314580	     -4.77448527	      8.70928742	     22.21718197	     22.21718197	      8.58283567	     -3.87091865	      7.74579333	    -10.75454646	      1.78752601	      3.74413240	     52.79776482	    -15.93950040	      3.02877181	     78.61503718	     44.74822179	      0.00000000	      0.00000000	    -12.02198363	     -7.21866503	     17.83444280	     28.90233042	     43.99138570	      0.00000000	      0.00000000
     46.46714286	     -6.06890663	     -2.74360007	     14.88068321	      0.86243014	      0.91435421	      0.55507348	      9.77707176	      3.03847301	    -11.70386882	     24.55223817	     24.55223817	     20.48826257	    -14.07054568	      2.03592796	     31.52471395	     -4.51350464	      8.44037789	     20.68313608	     20.68313608	      8.49722696	     -2.05374250	      7.62224182	    -10.45835040	      1.61839324	      3.89969274	     54.28862258	    -15.08933993	      3.99448991	     80.06650484	     44.68266394	      0.00000000	      0.00000000	    -12.44460276	     -7.06672029	     18.15078394	     28.88862264	     43.95305359	      0.00000000	      0.00000000
     46.48978571	     -6.22462179	     -2.85889113	     15.01199906	      0.86419984	      0.91452608	      0.55149674	      9.03758679	      2.98467637	    -12.09246490	     23.72494819	     23.72494819	     20.26395852	    -13.47974440	      1.17540530	     31.35759541	     -4.39215407	      8.04593331	     19.86732172	     19.86732172	      7.91041170	     -0.59065165	      6.01721306	    -10.21049460	      1.60815829	      4.15332147	     55.56989276	    -14.94686729	      5.92008726	     82.16320026	     44.59438388	      0.00000000	      0.00000000	    -12.98404017	     -7.15068029	     19.11311711	     29.28369032	     43.86429646	      0.00000000	      0.00000000
